<svg width="678" height="678" viewBox="0 0 678 678" fill="none" xmlns="http://www.w3.org/2000/svg">
<path d="M567.754 581.493C502.218 643.801 409.965 680.221 299.967 669.863C169.137 657.543 42.9643 554.261 12.2419 408.443C-25.579 228.916 88.5568 40.0411 265.546 25.9354C373.923 16.7583 472.921 75.9166 519.21 167.906C544.149 217.417 551.433 277.024 545.285 312.867C533.548 420.078 459.039 479.258 469.744 468.987C560.047 382.343 535.494 220.166 410.942 167.852C344.256 139.432 262.722 152.265 206.604 208.986C58.9646 357.056 136.751 617.577 357.922 649.493C425.743 659.28 509.506 636.035 567.754 581.492V581.493Z" fill="#000"/>
</svg>
